<svg width="32" height="32" viewBox="0 0 32 32" xmlns="http://www.w3.org/2000/svg">
  <!-- Background Circle -->
  <circle cx="16" cy="16" r="16" fill="url(#bgGradient)"/>
  
  <!-- Simplified Africa Shape -->
  <path d="M 16 8 
           C 12 8, 10 10, 10 12
           C 10 15, 10.5 18, 11 20
           L 12 23
           C 13 24, 15 25, 16 25
           C 17 25, 19 24, 20 23
           L 21 20
           C 21.5 18, 22 15, 22 12
           C 22 10, 20 8, 16 8 Z" 
           fill="url(#africaGradient)" 
           stroke="#FFD700" 
           stroke-width="0.5"/>
  
  <!-- Simple blockchain nodes -->
  <circle cx="12" cy="12" r="1.5" fill="#00D4FF" opacity="0.8"/>
  <circle cx="20" cy="12" r="1.5" fill="#00D4FF" opacity="0.8"/>
  <circle cx="16" cy="18" r="1.5" fill="#00D4FF" opacity="0.8"/>
  
  <!-- Gradients -->
  <defs>
    <linearGradient id="bgGradient" x1="0%" y1="0%" x2="100%" y2="100%">
      <stop offset="0%" style="stop-color:#0a0a0a;stop-opacity:1" />
      <stop offset="100%" style="stop-color:#1a1a2e;stop-opacity:1" />
    </linearGradient>
    
    <linearGradient id="africaGradient" x1="0%" y1="0%" x2="100%" y2="100%">
      <stop offset="0%" style="stop-color:#FF6B6B;stop-opacity:1" />
      <stop offset="50%" style="stop-color:#FFD700;stop-opacity:1" />
      <stop offset="100%" style="stop-color:#4ECDC4;stop-opacity:1" />
    </linearGradient>
  </defs>
</svg>