<svg width="1500" height="500" viewBox="0 0 1500 500" xmlns="http://www.w3.org/2000/svg">
  <!-- Background with gradient -->
  <rect width="1500" height="500" fill="url(#coverBg)"/>
  
  <!-- Grid pattern for tech feel -->
  <defs>
    <pattern id="grid" width="50" height="50" patternUnits="userSpaceOnUse">
      <path d="M 50 0 L 0 0 0 50" fill="none" stroke="#1a1a2e" stroke-width="0.5" opacity="0.3"/>
    </pattern>
  </defs>
  <rect width="1500" height="500" fill="url(#grid)"/>
  
  <!-- Multiple Africa shapes representing different languages -->
  <g opacity="0.15">
    <path transform="translate(100, 50) scale(0.8)" d="M 150 100 C 100 100, 70 140, 70 180 C 70 220, 80 260, 90 300 L 110 360 C 120 380, 145 400, 150 400 C 155 380, 180 380, 190 360 L 210 300 C 220 260, 230 220, 230 180 C 230 140, 200 100, 150 100 Z" fill="#FFD700"/>
    <path transform="translate(300, 100) scale(0.6)" d="M 150 100 C 100 100, 70 140, 70 180 C 70 220, 80 260, 90 300 L 110 360 C 120 380, 145 400, 150 400 C 155 380, 180 380, 190 360 L 210 300 C 220 260, 230 220, 230 180 C 230 140, 200 100, 150 100 Z" fill="#FF6B6B"/>
    <path transform="translate(500, 80) scale(0.7)" d="M 150 100 C 100 100, 70 140, 70 180 C 70 220, 80 260, 90 300 L 110 360 C 120 380, 145 400, 150 400 C 155 380, 180 380, 190 360 L 210 300 C 220 260, 230 220, 230 180 C 230 140, 200 100, 150 100 Z" fill="#4ECDC4"/>
    <path transform="translate(900, 50) scale(0.8)" d="M 150 100 C 100 100, 70 140, 70 180 C 70 220, 80 260, 90 300 L 110 360 C 120 380, 145 400, 150 400 C 155 380, 180 380, 190 360 L 210 300 C 220 260, 230 220, 230 180 C 230 140, 200 100, 150 100 Z" fill="#9B59B6"/>
    <path transform="translate(1100, 100) scale(0.6)" d="M 150 100 C 100 100, 70 140, 70 180 C 70 220, 80 260, 90 300 L 110 360 C 120 380, 145 400, 150 400 C 155 380, 180 380, 190 360 L 210 300 C 220 260, 230 220, 230 180 C 230 140, 200 100, 150 100 Z" fill="#E74C3C"/>
    <path transform="translate(1300, 80) scale(0.7)" d="M 150 100 C 100 100, 70 140, 70 180 C 70 220, 80 260, 90 300 L 110 360 C 120 380, 145 400, 150 400 C 155 380, 180 380, 190 360 L 210 300 C 220 260, 230 220, 230 180 C 230 140, 200 100, 150 100 Z" fill="#F39C12"/>
  </g>
  
  <!-- Sound waves flowing across -->
  <g opacity="0.3">
    <path d="M 0 250 Q 150 200, 300 250 T 600 250 T 900 250 T 1200 250 T 1500 250" stroke="url(#waveGradient)" stroke-width="3" fill="none">
      <animate attributeName="d" 
        values="M 0 250 Q 150 200, 300 250 T 600 250 T 900 250 T 1200 250 T 1500 250;
                M 0 250 Q 150 300, 300 250 T 600 250 T 900 250 T 1200 250 T 1500 250;
                M 0 250 Q 150 200, 300 250 T 600 250 T 900 250 T 1200 250 T 1500 250"
        dur="4s" repeatCount="indefinite"/>
    </path>
    <path d="M 0 200 Q 150 250, 300 200 T 600 200 T 900 200 T 1200 200 T 1500 200" stroke="url(#waveGradient2)" stroke-width="2" fill="none">
      <animate attributeName="d" 
        values="M 0 200 Q 150 250, 300 200 T 600 200 T 900 200 T 1200 200 T 1500 200;
                M 0 200 Q 150 150, 300 200 T 600 200 T 900 200 T 1200 200 T 1500 200;
                M 0 200 Q 150 250, 300 200 T 600 200 T 900 200 T 1200 200 T 1500 200"
        dur="3s" repeatCount="indefinite"/>
    </path>
    <path d="M 0 300 Q 150 250, 300 300 T 600 300 T 900 300 T 1200 300 T 1500 300" stroke="url(#waveGradient3)" stroke-width="2" fill="none">
      <animate attributeName="d" 
        values="M 0 300 Q 150 250, 300 300 T 600 300 T 900 300 T 1200 300 T 1500 300;
                M 0 300 Q 150 350, 300 300 T 600 300 T 900 300 T 1200 300 T 1500 300;
                M 0 300 Q 150 250, 300 300 T 600 300 T 900 300 T 1200 300 T 1500 300"
        dur="5s" repeatCount="indefinite"/>
    </path>
  </g>
  
  <!-- Blockchain network visualization -->
  <g opacity="0.6">
    <!-- Network nodes -->
    <circle cx="200" cy="400" r="4" fill="#00D4FF"/>
    <circle cx="400" cy="380" r="4" fill="#00D4FF"/>
    <circle cx="600" cy="420" r="4" fill="#00D4FF"/>
    <circle cx="800" cy="390" r="4" fill="#00D4FF"/>
    <circle cx="1000" cy="410" r="4" fill="#00D4FF"/>
    <circle cx="1200" cy="385" r="4" fill="#00D4FF"/>
    <circle cx="1400" cy="415" r="4" fill="#00D4FF"/>
    
    <!-- Connecting lines -->
    <polyline points="200,400 400,380 600,420 800,390 1000,410 1200,385 1400,415" 
              stroke="#00D4FF" stroke-width="1" fill="none" opacity="0.3"/>
  </g>
  
  <!-- Main Title -->
  <text x="750" y="200" font-family="Arial Black, sans-serif" font-size="72" font-weight="900" text-anchor="middle" fill="white" opacity="0.95">
    LINGUADAO
  </text>
  
  <!-- Tagline -->
  <text x="750" y="260" font-family="Arial, sans-serif" font-size="24" font-weight="300" text-anchor="middle" fill="#FFD700" opacity="0.9">
    The future of Africa speaks every language
  </text>
  
  <!-- Key metrics/features -->
  <g opacity="0.8">
    <text x="350" y="340" font-family="Arial, sans-serif" font-size="16" text-anchor="middle" fill="#4ECDC4">
      3,000+ Languages
    </text>
    <text x="550" y="340" font-family="Arial, sans-serif" font-size="16" text-anchor="middle" fill="#FF6B6B">
      Voice Mining
    </text>
    <text x="750" y="340" font-family="Arial, sans-serif" font-size="16" text-anchor="middle" fill="#FFD700">
      NFT Ownership
    </text>
    <text x="950" y="340" font-family="Arial, sans-serif" font-size="16" text-anchor="middle" fill="#9B59B6">
      DeFi Rewards
    </text>
    <text x="1150" y="340" font-family="Arial, sans-serif" font-size="16" text-anchor="middle" fill="#E74C3C">
      DAO Governance
    </text>
  </g>
  
  <!-- Language names floating -->
  <g opacity="0.3" font-family="Arial, sans-serif" font-size="12" fill="white">
    <text x="100" y="50">Swahili</text>
    <text x="250" y="450">Yoruba</text>
    <text x="450" y="60">Twi</text>
    <text x="650" y="470">Amharic</text>
    <text x="850" y="45">Hausa</text>
    <text x="1050" y="460">Zulu</text>
    <text x="1250" y="55">Wolof</text>
    <text x="1400" y="450">Ga</text>
  </g>
  
  <!-- Decorative elements -->
  <g opacity="0.2">
    <!-- Voice wave icons -->
    <g transform="translate(150, 150)">
      <circle cx="0" cy="0" r="20" fill="none" stroke="#FFD700" stroke-width="2">
        <animate attributeName="r" values="20;30;20" dur="3s" repeatCount="indefinite"/>
        <animate attributeName="opacity" values="0.2;0.5;0.2" dur="3s" repeatCount="indefinite"/>
      </circle>
    </g>
    <g transform="translate(1350, 150)">
      <circle cx="0" cy="0" r="20" fill="none" stroke="#4ECDC4" stroke-width="2">
        <animate attributeName="r" values="20;30;20" dur="3s" begin="1.5s" repeatCount="indefinite"/>
        <animate attributeName="opacity" values="0.2;0.5;0.2" dur="3s" begin="1.5s" repeatCount="indefinite"/>
      </circle>
    </g>
  </g>
  
  <!-- Gradients and Definitions -->
  <defs>
    <linearGradient id="coverBg" x1="0%" y1="0%" x2="100%" y2="100%">
      <stop offset="0%" style="stop-color:#0a0a0a;stop-opacity:1" />
      <stop offset="50%" style="stop-color:#1a1a2e;stop-opacity:1" />
      <stop offset="100%" style="stop-color:#0a0a0a;stop-opacity:1" />
    </linearGradient>
    
    <linearGradient id="waveGradient" x1="0%" y1="0%" x2="100%" y2="0%">
      <stop offset="0%" style="stop-color:#FFD700;stop-opacity:0" />
      <stop offset="50%" style="stop-color:#FFD700;stop-opacity:1" />
      <stop offset="100%" style="stop-color:#FFD700;stop-opacity:0" />
    </linearGradient>
    
    <linearGradient id="waveGradient2" x1="0%" y1="0%" x2="100%" y2="0%">
      <stop offset="0%" style="stop-color:#FF6B6B;stop-opacity:0" />
      <stop offset="50%" style="stop-color:#FF6B6B;stop-opacity:1" />
      <stop offset="100%" style="stop-color:#FF6B6B;stop-opacity:0" />
    </linearGradient>
    
    <linearGradient id="waveGradient3" x1="0%" y1="0%" x2="100%" y2="0%">
      <stop offset="0%" style="stop-color:#4ECDC4;stop-opacity:0" />
      <stop offset="50%" style="stop-color:#4ECDC4;stop-opacity:1" />
      <stop offset="100%" style="stop-color:#4ECDC4;stop-opacity:0" />
    </linearGradient>
  </defs>
</svg>